<?xml version="1.0" standalone="no"?>
<!DOCTYPE svg PUBLIC "-//W3C//DTD SVG 20010904//EN"
 "http://www.w3.org/TR/2001/REC-SVG-20010904/DTD/svg10.dtd">
<svg version="1.0" xmlns="http://www.w3.org/2000/svg"
 width="604.000000pt" height="604.000000pt" viewBox="0 0 604.000000 604.000000"
 preserveAspectRatio="xMidYMid meet">

<g transform="translate(0.000000,604.000000) scale(0.100000,-0.100000)"
fill="#000000" stroke="none">
<path d="M509 4777 c-85 -44 -95 -114 -29 -196 18 -21 30 -47 28 -57 -3 -17
-31 -36 -71 -48 -17 -5 -16 -8 3 -46 12 -23 28 -44 37 -47 25 -10 105 37 131
77 32 47 25 94 -22 156 -20 26 -36 53 -36 60 0 16 31 34 59 34 21 0 21 0 -1
45 -25 52 -37 54 -99 22z"/>
<path d="M3655 4793 l-110 -4 4 -197 c1 -108 5 -199 7 -202 3 -2 28 -4 57 -5
l52 0 0 80 0 80 75 0 75 1 0 49 0 50 -75 0 c-73 0 -75 1 -75 25 l0 25 88 -3
88 -4 -7 49 c-8 61 -10 63 -42 61 -15 -1 -76 -4 -137 -5z"/>
<path d="M680 4590 l0 -200 56 0 56 0 -4 90 c-2 50 -1 87 2 83 3 -5 24 -48 45
-96 25 -59 43 -87 53 -85 8 2 31 44 51 93 l36 90 3 -87 3 -88 58 0 58 0 0 200
0 200 -53 0 -54 0 -50 -107 c-28 -59 -54 -103 -58 -97 -5 5 -28 53 -52 107
l-44 97 -53 0 -53 0 0 -200z"/>
<path d="M1202 4595 c-40 -107 -72 -198 -72 -200 0 -3 27 -5 59 -5 58 0 60 1
66 30 l7 31 66 -3 c61 -3 67 -5 72 -28 5 -23 11 -25 68 -28 34 -2 62 1 62 6 0
4 -33 93 -73 198 l-74 189 -55 3 -55 3 -71 -196z m147 1 c14 -59 15 -56 -19
-56 -34 0 -38 15 -19 69 15 42 25 39 38 -13z"/>
<path d="M1560 4590 l0 -200 59 0 60 0 -6 71 -6 71 28 -4 c25 -3 31 -11 53
-70 l25 -68 58 0 c33 0 59 4 59 9 0 5 -13 38 -30 73 -34 71 -36 84 -17 91 19
7 47 69 47 102 0 39 -27 83 -63 105 -27 17 -51 20 -149 20 l-118 0 0 -200z
m184 100 c20 -7 26 -17 26 -39 0 -35 -22 -51 -69 -51 -30 0 -31 1 -31 50 0 46
2 50 24 50 14 0 36 -4 50 -10z"/>
<path d="M1925 4775 c-2 -5 -6 -25 -9 -44 l-6 -34 51 5 52 5 -6 -158 -6 -159
62 0 63 0 -4 159 -4 159 46 -5 46 -6 0 45 0 45 -141 -1 c-85 -1 -143 -5 -144
-11z"/>
<path d="M2388 4783 c-2 -5 -2 -95 0 -200 l3 -193 61 0 61 0 -6 45 -7 45 63 0
c105 0 161 53 161 155 0 62 -24 106 -74 134 -32 18 -55 21 -148 21 -61 0 -112
-3 -114 -7z m200 -99 c15 -10 22 -25 22 -49 0 -44 -22 -65 -71 -65 l-39 0 0
65 0 65 33 0 c18 0 43 -7 55 -16z"/>
<path d="M2765 4590 l0 -200 122 0 c67 0 128 -3 136 -6 16 -6 21 4 32 70 l6
38 -70 -7 c-91 -9 -111 -2 -111 37 l0 30 75 -4 c62 -3 75 -1 75 12 0 8 3 32 6
53 l7 38 -79 -3 c-78 -3 -79 -3 -79 22 0 25 0 25 84 22 l84 -3 -6 38 c-4 21
-7 44 -7 51 0 9 -34 12 -137 12 l-138 0 0 -200z"/>
<path d="M3085 4775 c-2 -5 -6 -25 -9 -44 l-6 -34 51 5 52 5 -6 -158 -6 -159
62 0 63 0 -4 159 -4 159 46 -5 46 -6 0 45 0 45 -141 -1 c-85 -1 -143 -5 -144
-11z"/>
<path d="M3875 4590 l0 -200 122 0 c67 0 128 -3 136 -6 16 -6 21 4 32 70 l6
38 -70 -7 c-91 -9 -111 -2 -111 37 l0 30 75 -4 c62 -3 75 -1 75 12 0 8 3 32 6
53 l7 38 -79 -3 c-78 -3 -79 -3 -79 22 0 25 0 25 84 22 l84 -3 -6 38 c-4 21
-7 44 -7 51 0 9 -34 12 -137 12 l-138 0 0 -200z"/>
<path d="M4205 4590 l0 -200 122 0 c67 0 128 -3 136 -6 16 -6 21 4 32 70 l6
38 -70 -7 c-91 -9 -111 -2 -111 37 l0 30 75 -4 c62 -3 75 -1 75 12 0 8 3 32 6
53 l7 38 -79 -3 c-78 -3 -79 -3 -79 22 0 25 0 25 84 22 l84 -3 -6 38 c-4 21
-7 44 -7 51 0 9 -34 12 -137 12 l-138 0 0 -200z"/>
<path d="M4540 4590 l0 -200 110 0 c129 0 163 11 208 65 67 81 64 201 -7 275
-45 48 -89 60 -213 60 l-98 0 0 -200z m221 94 c27 -24 40 -81 29 -128 -12 -55
-40 -79 -92 -80 l-43 -1 -3 104 c-1 58 0 111 3 119 7 20 80 10 106 -14z"/>
<path d="M4955 4590 l0 -200 122 0 c67 0 128 -3 136 -6 16 -6 21 4 32 70 l6
38 -70 -7 c-91 -9 -111 -2 -111 37 l0 30 75 -4 c62 -3 75 -1 75 12 0 8 3 32 6
53 l7 38 -79 -3 c-78 -3 -79 -3 -79 22 0 25 0 25 84 22 l84 -3 -6 38 c-4 21
-7 44 -7 51 0 9 -34 12 -137 12 l-138 0 0 -200z"/>
<path d="M5290 4590 l0 -200 59 0 60 0 -6 71 -6 71 28 -4 c25 -3 31 -11 53
-70 l25 -68 58 0 c33 0 59 4 59 9 0 5 -13 38 -30 73 -34 71 -36 84 -17 91 19
7 47 69 47 102 0 39 -27 83 -63 105 -27 17 -51 20 -149 20 l-118 0 0 -200z
m184 100 c20 -7 26 -17 26 -39 0 -35 -22 -51 -69 -51 -30 0 -31 1 -31 50 0 46
2 50 24 50 14 0 36 -4 50 -10z"/>
<path d="M1963 3988 c4 -46 16 -155 27 -243 56 -442 56 -497 0 -644 -43 -113
-60 -190 -60 -271 l0 -73 -32 6 c-18 3 -64 13 -103 22 -129 29 -148 31 -143 9
3 -15 30 -26 142 -54 l138 -36 24 -74 c13 -41 24 -76 24 -77 0 -2 -103 -3
-230 -3 -223 0 -230 -1 -230 -20 0 -19 7 -20 193 -20 105 0 215 -3 242 -6 47
-6 52 -10 83 -56 17 -28 32 -53 32 -57 0 -3 -80 -26 -177 -50 -98 -25 -192
-48 -208 -53 -21 -5 -31 -14 -31 -28 0 -24 12 -25 85 -5 109 28 352 85 364 85
7 0 29 -16 48 -36 141 -148 385 -267 644 -316 103 -19 369 -16 478 5 242 48
466 159 602 297 27 27 55 50 63 50 7 0 96 -20 198 -45 198 -48 239 -53 248
-30 4 10 -5 17 -32 24 -20 5 -113 29 -207 52 -93 23 -172 43 -174 45 -1 1 12
27 30 57 25 41 42 57 63 61 16 3 125 6 242 6 207 0 214 1 214 20 0 19 -7 20
-228 20 l-229 0 22 77 22 76 69 19 c38 10 91 23 117 28 60 12 102 32 99 45 -4
15 -66 9 -178 -17 l-102 -24 -4 106 c-4 93 -10 117 -47 215 -37 95 -43 124
-48 210 -3 55 0 141 5 190 6 50 18 155 27 235 9 80 20 170 25 201 11 61 13
159 4 159 -3 0 -168 -100 -367 -221 l-361 -221 -68 11 c-86 14 -432 14 -514 0
-76 -13 -27 -38 -489 246 -194 120 -304 185 -311 185 -4 0 -4 -37 -1 -82z
m436 -288 l283 -173 97 19 c130 25 349 26 484 0 l99 -18 171 104 c95 58 232
141 305 186 l132 81 0 -29 c0 -16 -6 -78 -14 -137 -45 -333 -50 -404 -37 -490
6 -45 30 -133 52 -195 31 -88 41 -131 45 -202 3 -52 1 -97 -4 -105 -6 -8 -164
-52 -374 -105 -324 -81 -363 -93 -363 -111 0 -17 30 -27 267 -85 147 -36 269
-68 273 -71 9 -10 -125 -113 -201 -155 -164 -92 -322 -133 -535 -141 -222 -8
-356 14 -541 89 -142 58 -337 198 -297 213 8 3 129 33 269 68 354 87 357 79
-77 187 -186 46 -352 87 -370 92 -28 8 -33 14 -38 52 -10 63 12 186 50 285 64
168 67 237 20 611 -31 252 -31 236 -2 218 12 -8 150 -93 306 -188z m-94 -1089
l230 -59 -222 -1 c-250 -1 -227 -8 -258 80 -13 36 -13 39 3 39 9 0 121 -27
247 -59z m1695 55 c0 -2 -10 -29 -21 -60 l-22 -56 -226 1 -226 1 230 58 c217
56 265 66 265 56z m-1645 -211 c-186 -47 -182 -47 -218 14 l-18 31 203 -1 203
-1 -170 -43z m1565 37 c0 -5 -15 -25 -32 -44 l-33 -36 -170 43 -170 43 203 1
c111 1 202 -3 202 -7z"/>
<path d="M2485 3061 c-48 -29 -67 -57 -72 -105 -13 -115 89 -193 195 -150 108
43 121 186 23 251 -42 28 -104 30 -146 4z"/>
<path d="M3421 3062 c-51 -26 -74 -63 -75 -121 -2 -83 61 -147 144 -145 83 1
140 59 140 143 0 108 -111 174 -209 123z"/>
<path d="M2940 2668 c-72 -37 -73 -48 -7 -117 31 -33 57 -67 57 -76 0 -29 -33
-74 -66 -90 -43 -20 -72 -19 -117 5 -41 22 -57 19 -57 -8 0 -20 41 -47 87 -56
45 -10 113 11 150 46 l32 31 35 -31 c60 -53 136 -62 207 -26 32 16 42 39 25
54 -10 8 -23 5 -50 -11 -74 -44 -176 3 -176 80 0 29 9 45 52 88 60 61 59 72
-8 110 -50 29 -108 29 -164 1z"/>
</g>
</svg>
